<svg xmlns="http://www.w3.org/2000/svg" xmlns:xlink="http://www.w3.org/1999/xlink" viewBox="0 0 154 25"><path d="M 2.233 24.194 L 2.233 1.09 L 6.449 1.09 L 6.449 20.473 L 16.34 20.473 L 16.34 24.194 Z M 42.723 24.194 L 42.723 10.952 L 39.746 10.952 L 39.746 7.323 L 42.723 7.323 L 42.723 6.766 C 42.723 5.484 42.981 4.398 43.497 3.51 C 44.021 2.612 44.798 1.89 45.73 1.431 C 46.681 0.956 47.807 0.719 49.109 0.719 C 49.357 0.719 49.626 0.74 49.915 0.781 C 50.226 0.801 50.484 0.832 50.691 0.873 L 50.691 4.378 C 50.497 4.338 50.3 4.317 50.102 4.316 C 49.947 4.296 49.792 4.286 49.636 4.285 C 48.727 4.285 48.024 4.492 47.528 4.906 C 47.032 5.298 46.784 5.918 46.784 6.766 L 46.784 7.324 L 50.535 7.324 L 50.535 10.952 L 46.784 10.952 L 46.784 24.194 Z M 60.88 24.566 C 59.143 24.566 57.624 24.173 56.322 23.387 C 55.037 22.62 53.986 21.515 53.283 20.194 C 52.56 18.849 52.199 17.36 52.199 15.727 C 52.199 14.032 52.56 12.534 53.283 11.231 C 54.027 9.908 55.03 8.864 56.291 8.098 C 57.573 7.334 58.999 6.951 60.57 6.951 C 61.892 6.951 63.05 7.169 64.042 7.602 C 65.055 8.036 65.913 8.636 66.616 9.401 C 67.319 10.167 67.867 11.062 68.228 12.037 C 68.599 13.009 68.786 14.063 68.786 15.2 C 68.786 15.49 68.765 15.789 68.724 16.099 C 68.703 16.41 68.652 16.678 68.569 16.906 L 55.547 16.906 L 55.547 13.805 L 66.275 13.805 L 64.353 15.262 C 64.538 14.31 64.486 13.464 64.197 12.719 C 63.946 11.998 63.467 11.377 62.833 10.952 C 62.213 10.517 61.459 10.3 60.57 10.3 C 59.723 10.3 58.967 10.518 58.306 10.952 C 57.645 11.365 57.139 11.985 56.787 12.812 C 56.457 13.619 56.333 14.601 56.415 15.758 C 56.333 16.792 56.466 17.712 56.818 18.519 C 57.19 19.304 57.727 19.914 58.431 20.348 C 59.154 20.782 59.98 20.999 60.911 20.999 C 61.841 20.999 62.626 20.803 63.267 20.41 C 63.916 20.031 64.451 19.484 64.817 18.828 L 68.104 20.441 C 67.774 21.248 67.256 21.96 66.554 22.581 C 65.851 23.202 65.014 23.687 64.042 24.039 C 63.091 24.39 62.037 24.566 60.88 24.566 Z M 83.058 24.566 C 81.405 24.566 79.874 24.266 78.47 23.666 C 77.098 23.076 75.855 22.223 74.811 21.155 C 73.777 20.079 72.971 18.818 72.392 17.371 C 71.813 15.924 71.524 14.342 71.524 12.626 C 71.524 10.91 71.803 9.328 72.361 7.881 C 72.94 6.414 73.746 5.152 74.78 4.098 C 75.827 3.027 77.083 2.183 78.469 1.617 C 79.874 1.018 81.405 0.718 83.058 0.718 C 84.711 0.718 86.189 0.997 87.491 1.555 C 88.814 2.113 89.931 2.857 90.841 3.788 C 91.75 4.698 92.401 5.7 92.793 6.796 L 89.011 8.564 C 88.577 7.406 87.843 6.455 86.809 5.71 C 85.776 4.946 84.526 4.563 83.058 4.563 C 81.611 4.563 80.329 4.904 79.213 5.587 C 78.118 6.269 77.26 7.21 76.64 8.409 C 76.041 9.608 75.741 11.014 75.741 12.627 C 75.741 14.24 76.041 15.655 76.64 16.875 C 77.26 18.074 78.118 19.015 79.213 19.698 C 80.329 20.379 81.611 20.72 83.058 20.72 C 84.526 20.72 85.776 20.348 86.809 19.604 C 87.843 18.839 88.577 17.878 89.011 16.72 L 92.793 18.487 C 92.401 19.584 91.75 20.596 90.841 21.527 C 89.931 22.436 88.814 23.17 87.491 23.728 C 86.189 24.286 84.711 24.566 83.058 24.566 Z M 100.689 24.566 C 99.511 24.566 98.487 24.369 97.62 23.977 C 96.752 23.584 96.08 23.025 95.604 22.302 C 95.128 21.557 94.891 20.7 94.891 19.727 C 94.891 18.798 95.098 17.971 95.511 17.247 C 95.924 16.502 96.565 15.882 97.434 15.386 C 98.302 14.89 99.397 14.539 100.72 14.331 L 106.239 13.432 L 106.239 16.534 L 101.495 17.34 C 100.689 17.485 100.09 17.744 99.697 18.115 C 99.304 18.487 99.107 18.973 99.107 19.573 C 99.107 20.152 99.325 20.617 99.759 20.968 C 100.214 21.298 100.772 21.465 101.433 21.465 C 102.281 21.465 103.024 21.289 103.665 20.937 C 104.306 20.586 104.833 20.059 105.184 19.418 C 105.557 18.778 105.75 18.049 105.743 17.309 L 105.743 12.968 C 105.743 12.244 105.454 11.645 104.875 11.169 C 104.317 10.673 103.573 10.425 102.642 10.425 C 101.774 10.425 100.999 10.663 100.317 11.139 C 99.659 11.589 99.152 12.226 98.86 12.968 L 95.542 11.355 C 95.866 10.476 96.398 9.689 97.093 9.06 C 97.834 8.387 98.697 7.861 99.635 7.51 C 100.606 7.138 101.66 6.952 102.797 6.952 C 104.182 6.952 105.402 7.21 106.456 7.727 C 107.511 8.223 108.326 8.927 108.905 9.835 C 109.504 10.725 109.804 11.769 109.804 12.968 L 109.804 24.194 L 105.96 24.194 L 105.96 21.31 L 106.828 21.248 C 106.419 21.941 105.895 22.56 105.278 23.077 C 104.663 23.561 103.971 23.938 103.232 24.194 C 102.466 24.442 101.619 24.566 100.689 24.566 Z M 113.558 24.194 L 113.558 7.323 L 117.372 7.323 L 117.372 11.076 L 117.063 10.517 C 117.455 9.256 118.065 8.377 118.891 7.881 C 119.739 7.385 120.752 7.137 121.93 7.137 L 122.922 7.137 L 122.922 10.734 L 121.465 10.734 C 120.307 10.734 119.377 11.097 118.674 11.82 C 117.972 12.523 117.621 13.515 117.621 14.797 L 117.621 24.194 Z M 133.154 24.566 C 131.418 24.566 129.899 24.173 128.597 23.387 C 127.312 22.62 126.261 21.515 125.558 20.194 C 124.835 18.849 124.473 17.36 124.473 15.727 C 124.473 14.032 124.835 12.534 125.558 11.231 C 126.303 9.908 127.305 8.864 128.566 8.098 C 129.848 7.334 131.274 6.951 132.845 6.951 C 134.168 6.951 135.325 7.169 136.317 7.602 C 137.33 8.036 138.188 8.636 138.891 9.401 C 139.594 10.167 140.142 11.062 140.503 12.037 C 140.875 13.009 141.061 14.063 141.061 15.2 C 141.061 15.49 141.041 15.789 140.999 16.099 C 140.985 16.374 140.933 16.646 140.844 16.906 L 127.822 16.906 L 127.822 13.805 L 138.55 13.805 L 136.627 15.262 C 136.813 14.31 136.762 13.464 136.472 12.719 C 136.221 11.998 135.742 11.377 135.108 10.952 C 134.488 10.517 133.733 10.3 132.845 10.3 C 131.997 10.3 131.243 10.518 130.582 10.952 C 129.92 11.365 129.413 11.985 129.062 12.812 C 128.731 13.619 128.607 14.601 128.69 15.758 C 128.607 16.792 128.742 17.712 129.093 18.519 C 129.465 19.304 130.003 19.914 130.706 20.348 C 131.429 20.782 132.255 20.999 133.186 20.999 C 134.116 20.999 134.902 20.803 135.542 20.41 C 136.191 20.031 136.726 19.485 137.092 18.828 L 140.379 20.441 C 140.048 21.248 139.531 21.96 138.829 22.581 C 138.126 23.202 137.289 23.687 136.317 24.039 C 135.367 24.39 134.312 24.566 133.154 24.566 Z M 146.062 24.194 L 146.062 19.852 L 150.155 19.852 L 150.155 24.194 Z" fill="rgb(34,34,34)"></path><path d="M 27.414 4.313 C 28.195 4.312 28.829 3.678 28.83 2.896 C 28.829 2.114 28.195 1.48 27.414 1.479 C 26.632 1.48 25.998 2.114 25.997 2.896 C 25.998 3.678 26.632 4.312 27.414 4.313 Z M 38.04 1.479 L 33.08 1.479 C 31.992 1.479 30.967 1.753 30.073 2.237 C 30.433 3.705 29.54 5.187 28.075 5.555 L 28.075 8.471 L 32.373 8.471 C 33.043 8.471 34.22 8.183 35.026 7.274 C 35.084 7.209 35.098 7.116 35.062 7.037 C 35.026 6.957 34.947 6.906 34.86 6.906 L 32.373 6.906 C 32.192 6.907 32.019 6.833 31.894 6.702 C 31.769 6.57 31.703 6.394 31.712 6.213 C 31.728 5.857 32.035 5.584 32.392 5.584 L 35.211 5.584 C 37.09 5.584 38.66 4.096 38.701 2.217 L 38.702 2.144 C 38.702 1.778 38.407 1.48 38.04 1.479 Z M 26.752 5.555 C 25.287 5.187 24.394 3.705 24.754 2.237 C 23.831 1.738 22.797 1.477 21.747 1.479 L 16.787 1.479 C 16.611 1.48 16.442 1.55 16.318 1.675 C 16.194 1.8 16.125 1.969 16.126 2.145 L 16.126 2.217 C 16.167 4.096 17.737 5.583 19.616 5.583 L 22.436 5.583 C 22.792 5.583 23.098 5.857 23.115 6.212 C 23.124 6.393 23.058 6.57 22.933 6.701 C 22.808 6.832 22.635 6.906 22.454 6.906 L 19.967 6.906 C 19.88 6.906 19.801 6.957 19.765 7.037 C 19.729 7.116 19.744 7.209 19.802 7.274 C 20.607 8.183 21.784 8.471 22.454 8.471 L 26.752 8.471 L 26.752 5.555 Z M 31.618 10.636 C 31.614 10.271 31.314 9.978 30.949 9.982 C 30.583 9.986 30.29 10.285 30.294 10.651 C 30.297 11.055 30.071 11.425 29.711 11.607 L 28.075 12.423 L 28.075 9.794 L 26.752 9.794 L 26.752 12.423 L 25.117 11.607 C 24.757 11.425 24.53 11.055 24.533 10.651 C 24.537 10.286 24.244 9.986 23.879 9.982 C 23.514 9.978 23.214 10.271 23.21 10.636 C 23.204 11.546 23.714 12.381 24.526 12.79 L 25.933 13.494 L 24.714 14.102 C 24.009 14.452 23.563 15.172 23.564 15.96 C 23.561 16.747 24.005 17.468 24.709 17.819 L 25.941 18.439 L 25.388 18.717 C 24.681 19.069 24.237 19.793 24.243 20.583 C 24.244 21.373 24.695 22.094 25.405 22.44 L 26.752 23.101 L 26.752 23.398 C 26.752 23.764 27.048 24.06 27.413 24.06 C 27.779 24.06 28.075 23.764 28.075 23.398 L 28.075 23.102 L 29.422 22.44 C 30.133 22.094 30.583 21.373 30.584 20.583 C 30.59 19.793 30.146 19.069 29.439 18.717 L 28.886 18.439 L 30.118 17.819 C 30.822 17.468 31.266 16.747 31.263 15.96 C 31.264 15.172 30.819 14.452 30.113 14.102 L 28.894 13.494 L 30.301 12.79 C 31.113 12.381 31.624 11.546 31.618 10.636 Z M 26.752 21.627 L 25.989 21.252 C 25.731 21.127 25.567 20.865 25.566 20.577 C 25.564 20.29 25.725 20.027 25.982 19.898 L 26.752 19.511 Z M 26.752 17.365 L 25.304 16.637 C 25.047 16.51 24.886 16.248 24.887 15.961 C 24.887 15.673 25.048 15.415 25.306 15.285 L 26.752 14.563 L 26.752 17.366 Z M 29.261 20.577 C 29.261 20.865 29.097 21.126 28.839 21.252 L 28.075 21.627 L 28.075 19.511 L 28.845 19.898 C 29.103 20.028 29.262 20.289 29.261 20.577 Z M 29.522 15.285 C 29.78 15.415 29.94 15.673 29.941 15.961 C 29.942 16.248 29.78 16.51 29.524 16.637 L 28.075 17.366 L 28.075 14.563 Z" fill="rgb(19,115,235)"></path></svg>